<svg width="18" height="18" viewBox="0 0 18 18" fill="none" xmlns="http://www.w3.org/2000/svg">
<path d="M6.75 8.625C8.19975 8.625 9.375 7.44975 9.375 6C9.375 4.55025 8.19975 3.375 6.75 3.375C5.30025 3.375 4.125 4.55025 4.125 6C4.125 7.44975 5.30025 8.625 6.75 8.625Z" stroke="white" stroke-width="1.35" stroke-linecap="round" stroke-linejoin="round"/>
<path d="M1.5 15C2.25 12.375 4.35 10.875 6.75 10.875C9.15 10.875 11.25 12.375 12 15" stroke="white" stroke-width="1.35" stroke-linecap="round" stroke-linejoin="round"/>
<path d="M12.75 8.625C13.7855 8.625 14.625 7.78553 14.625 6.75C14.625 5.71447 13.7855 4.875 12.75 4.875C11.7145 4.875 10.875 5.71447 10.875 6.75C10.875 7.78553 11.7145 8.625 12.75 8.625Z" stroke="white" stroke-width="1.35" stroke-linecap="round" stroke-linejoin="round"/>
<path d="M12.75 10.5C14.475 10.5 15.75 11.625 16.5 13.5" stroke="white" stroke-width="1.35" stroke-linecap="round" stroke-linejoin="round"/>
</svg>
