<svg preserveAspectRatio="none" overflow="visible" style="display: block;" width="25" height="25" viewBox="0 0 25 25" fill="none" xmlns="http://www.w3.org/2000/svg">
<g id="Frame">
<path id="Vector" d="M17.7083 10.4167H7.29167C6.14107 10.4167 5.20833 11.3494 5.20833 12.5V20.8333C5.20833 21.9839 6.14107 22.9167 7.29167 22.9167H17.7083C18.8589 22.9167 19.7917 21.9839 19.7917 20.8333V12.5C19.7917 11.3494 18.8589 10.4167 17.7083 10.4167Z" stroke="#247780" stroke-width="1.5625"/>
<path id="Vector_2" d="M8.33333 10.4167V6.25C8.33333 5.14493 8.77232 4.08512 9.55372 3.30372C10.3351 2.52232 11.3949 2.08333 12.5 2.08333C13.6051 2.08333 14.6649 2.52232 15.4463 3.30372C16.2277 4.08512 16.6667 5.14493 16.6667 6.25V10.4167M12.5 16.6667V18.75" stroke="#247780" stroke-width="1.5625"/>
</g>
</svg>
